<svg width="25" height="25" viewBox="0 0 25 25" fill="none" xmlns="http://www.w3.org/2000/svg">
<g clip-path="url(#clip0_62_7)">
<g clip-path="url(#clip1_62_7)">
<path d="M4.8208 4.6236L5.92636 6.23054L10.8319 13.3583L11.4152 14.2055L15.3569 19.9319L15.6625 20.3764H20.1972L19.0916 18.7694L13.9333 11.2764L13.35 10.4278L9.66108 5.06804L9.35413 4.6236H4.8208ZM12.1069 13.4L11.5236 12.5542L6.77219 5.64998H8.81525L12.6583 11.2333L13.2416 12.0805L18.2458 19.35H16.2014L12.1069 13.4Z" fill="#0E141E"/>
<path d="M10.8319 13.3583L4.80273 20.3764H6.11107L11.4152 14.2056L12.1069 13.4L11.5236 12.5542L10.8319 13.3583Z" fill="#0E141E"/>
<path d="M18.343 4.6236L17.2236 5.92082L13.35 10.4278L12.6583 11.2333L13.2417 12.0805L13.9333 11.2764L19.6514 4.6236H18.343Z" fill="#0E141E"/>
</g>
</g>
<defs>
<clipPath id="clip0_62_7">
<rect width="25" height="25" fill="white"/>
</clipPath>
<clipPath id="clip1_62_7">
<rect width="25" height="25" fill="white"/>
</clipPath>
</defs>
</svg>
